<svg width="86" height="52" viewBox="0 0 86 52" fill="none" xmlns="http://www.w3.org/2000/svg">
<g clip-path="url(#clip0_531_940)">
<path d="M2.46001 14.32L36.99 48.85C38.576 50.4207 40.7179 51.3018 42.95 51.3018C45.1821 51.3018 47.324 50.4207 48.91 48.85L83.44 14.32C85.01 12.7438 85.8915 10.6097 85.8915 8.38503C85.8915 6.16032 85.01 4.02624 83.44 2.45003C81.8638 0.880033 79.7297 -0.00146484 77.505 -0.00146484C75.2803 -0.00146484 73.1462 0.880033 71.57 2.45003L42.95 31.08L14.32 2.45003C12.7455 0.880645 10.6131 -0.000595093 8.39 -0.000595093C6.16693 -0.000595093 4.03452 0.880645 2.46001 2.45003C1.68021 3.2292 1.0616 4.1544 0.639542 5.17276C0.217485 6.19112 0.000259399 7.28267 0.000259399 8.38503C0.000259399 9.48738 0.217485 10.5789 0.639542 11.5973C1.0616 12.6156 1.68021 13.5409 2.46001 14.32Z" fill="#1D1D1B"/>
</g>
<defs>
<clipPath id="clip0_531_940">
<rect width="85.89" height="51.31" fill="white"/>
</clipPath>
</defs>
</svg>
