<svg width="114" height="116" viewBox="0 0 114 116" fill="none" xmlns="http://www.w3.org/2000/svg">
<path d="M109.055 0.982849H30.9579C29.6647 0.983265 28.4246 1.51107 27.5101 2.45023C26.5957 3.38939 26.0818 4.66305 26.0814 5.99123V81.3426C24.3059 80.9362 22.4927 80.7291 20.6736 80.725C9.29341 80.725 0.0683594 88.3998 0.0683594 97.871C0.0683594 107.341 9.29341 115.016 20.6736 115.016C32.0523 115.016 41.2789 107.341 41.2789 97.871V25.4839H98.7355V66.8693C96.9601 66.4628 95.1468 66.2557 93.3278 66.2516C81.9476 66.2516 72.7225 73.9265 72.7225 83.3977C72.7225 92.8689 81.9476 100.542 93.3278 100.542C104.706 100.542 113.933 92.8674 113.933 83.3977V5.99279C113.933 4.6642 113.419 3.39014 112.504 2.45069C111.589 1.51123 110.349 0.983265 109.055 0.982849V0.982849Z" fill="#888888"/>
</svg>
