<svg width="201" height="201" viewBox="0 0 201 201" fill="none" xmlns="http://www.w3.org/2000/svg">
<g clip-path="url(#clip0_3_478)">
<path d="M133.983 66.9915H157.358V89.5947L194.326 37.8425C187.734 24.1705 176.695 13.1422 163.016 6.56421C149.337 -0.0138168 133.83 -1.75168 119.034 1.63526C104.239 5.02221 91.0317 13.3332 81.5767 25.2069C72.1218 37.0806 66.9793 51.8132 66.9915 66.9915V160.488L133.983 66.9915Z" fill="#C9D09A"/>
<path d="M43.6263 71.2002C30.8082 75.9605 19.7537 84.5291 11.9475 95.7552C4.14124 106.981 -0.0428467 120.327 -0.0428467 134.001C-0.0428467 147.674 4.14124 161.02 11.9475 172.247C19.7537 183.473 30.8082 192.041 43.6263 196.802V71.2002Z" fill="#C9D09A"/>
<path d="M157.379 129.8C169.9 125.139 180.741 116.84 188.509 105.971C196.278 95.1013 200.619 82.1572 200.974 68.8018L157.379 129.8Z" fill="#C9D09A"/>
<path d="M66.9915 201C75.7911 201 84.5044 199.266 92.6339 195.898C100.763 192.53 108.15 187.593 114.371 181.37C120.592 175.146 125.526 167.758 128.891 159.627C132.256 151.497 133.986 142.783 133.983 133.983V107.222L66.9915 201Z" fill="#C9D09A"/>
</g>
<defs>
<clipPath id="clip0_3_478">
<rect width="200.954" height="201" fill="white"/>
</clipPath>
</defs>
</svg>
