<svg width="8" height="8" viewBox="0 0 8 8" fill="none" xmlns="http://www.w3.org/2000/svg">
<path d="M7.59005 0.0677872H2.20405C2.11486 0.0678158 2.02933 0.104216 1.96627 0.168986C1.9032 0.233756 1.86776 0.321594 1.86773 0.413193V5.60984C1.74528 5.58181 1.62023 5.56753 1.49478 5.56725C0.709941 5.56725 0.0737305 6.09654 0.0737305 6.74973C0.0737305 7.40281 0.709941 7.93211 1.49478 7.93211C2.27952 7.93211 2.91584 7.40281 2.91584 6.74973V1.75752H6.87836V4.61168C6.75592 4.58365 6.63087 4.56937 6.50542 4.56908C5.72057 4.56908 5.08436 5.09838 5.08436 5.75157C5.08436 6.40476 5.72057 6.93395 6.50542 6.93395C7.29015 6.93395 7.92647 6.40465 7.92647 5.75157V0.413301C7.92644 0.321674 7.89099 0.233807 7.8279 0.169017C7.76482 0.104227 7.67926 0.0678158 7.59005 0.0677872Z" fill="#888888"/>
</svg>
