<svg width="86" height="52" viewBox="0 0 86 52" fill="none" xmlns="http://www.w3.org/2000/svg">
<g clip-path="url(#clip0_531_942)">
<path d="M83.44 36.98L48.91 2.44998C47.324 0.879332 45.1821 -0.00177002 42.95 -0.00177002C40.7179 -0.00177002 38.576 0.879332 36.99 2.44998L2.46 36.98C1.68021 37.7592 1.06159 38.6844 0.639536 39.7027C0.217479 40.7211 0.000253677 41.8126 0.000253677 42.915C0.000253677 44.0173 0.217479 45.1089 0.639536 46.1272C1.06159 47.1456 1.68021 48.0708 2.46 48.85C4.03451 50.4194 6.16692 51.3006 8.38999 51.3006C10.6131 51.3006 12.7455 50.4194 14.32 48.85L42.95 20.26L71.57 48.89C73.1462 50.46 75.2803 51.3415 77.505 51.3415C79.7297 51.3415 81.8638 50.46 83.44 48.89V48.89C84.2234 48.1087 84.845 47.1806 85.2691 46.1587C85.6932 45.1369 85.9115 44.0414 85.9115 42.935C85.9115 41.8286 85.6932 40.7331 85.2691 39.7112C84.845 38.6894 84.2234 37.7612 83.44 36.98V36.98Z" fill="#1D1D1B"/>
</g>
<defs>
<clipPath id="clip0_531_942">
<rect width="85.89" height="51.31" fill="white"/>
</clipPath>
</defs>
</svg>
