<svg width="79" height="47" viewBox="0 0 79 47" fill="none" xmlns="http://www.w3.org/2000/svg">
<g clip-path="url(#clip0_2_2)">
<path d="M2.24 13.09L33.82 44.67C35.2696 46.1075 37.2285 46.9141 39.27 46.9141C41.3115 46.9141 43.2704 46.1075 44.72 44.67L76.32 13.09C77.7569 11.6502 78.5638 9.69913 78.5638 7.665C78.5638 5.63087 77.7569 3.67982 76.32 2.24V2.24C74.8802 0.803132 72.9291 -0.00384521 70.895 -0.00384521C68.8609 -0.00384521 66.9098 0.803132 65.47 2.24L39.32 28.42L13.09 2.24C11.6502 0.803132 9.69913 -0.00384521 7.665 -0.00384521C5.63087 -0.00384521 3.67982 0.803132 2.24 2.24V2.24C0.803132 3.67982 -0.00384521 5.63087 -0.00384521 7.665C-0.00384521 9.69913 0.803132 11.6502 2.24 13.09V13.09Z" fill="#1D1D1B"/>
</g>
<defs>
<clipPath id="clip0_2_2">
<rect width="78.54" height="46.91" fill="white"/>
</clipPath>
</defs>
</svg>
